<?xml version="1.0" standalone="no"?><!DOCTYPE svg PUBLIC "-//W3C//DTD SVG 1.1//EN" "http://www.w3.org/Graphics/SVG/1.1/DTD/svg11.dtd">
<svg t="1659073426080" class="icon" viewBox="0 0 1024 1024" version="1.1" xmlns="http://www.w3.org/2000/svg" p-id="2425"
     width="200" height="200"><defs><style type="text/css"></style></defs><path d="M388.1 642.4h53.8c3.9 0 6.7-3.8 5.5-7.6l-26.8-82.6c-1.7-5.3-9.3-5.4-11 0l-27 82.6c-1.3 3.8 1.5 7.6 5.5 7.6z" fill="#0052D9" p-id="2426"></path><path d="M553.3 413.3H276.2c-29 0-52.8 23.8-52.8 52.8V774c0 29 23.8 52.8 52.8 52.8h277.1c29 0 52.8-23.8 52.8-52.8V466.1c0-29.1-23.7-52.8-52.8-52.8zM520 759c-2.9 3.5-6.9 5.9-11.7 6.9-1.7 0.4-3.4 0.5-5 0.5-2.9 0-5.6-0.5-8.2-1.6-6.6-2.8-8.9-7.5-9.7-11.2l-23.3-72.2c-1.2-3.7-4.7-6.3-8.6-6.3h-79.3c-2.9 0-5.4 1.8-6.3 4.5l-24.2 73.9c-2.1 4.5-5.5 8-10.2 10.3-4.8 2.3-9.5 3-14.1 1.9-6.8-1.3-10.3-5.3-11.9-8.3-1.8-3.1-3.3-8.6 0.5-16.4l79.4-242.8c5.1-12.9 14.6-19.5 27.7-19.5h0.2c12.6 0.3 22.2 6.8 27.7 18.8l0.3 0.7L522.4 744c1.9 5.6 1 10.9-2.4 15z" fill="#0052D9" p-id="2427"></path><path d="M761.7 224.1h-254c-35.4 0-64.3 28.9-64.3 64.3V367c0 6.4 5.2 11.5 11.5 11.5h68.8c9.7 0 19.1 1.2 28.2 3.6-2.8-9.3-5.3-18.8-7.5-28.6h-34.6c-7.5-0.8-11.6-6.8-12.3-17.9 0.7-11 4.8-17 12.3-17.9H617c-3.7-11-6-20.4-6.7-28.1-1.5-9.3 1.9-15.7 10.1-19.1 9.7-2.6 16.8 0 21.2 7.7 1.5 5.1 3.7 12.8 6.7 23 2.2 7.7 3.7 13.2 4.5 16.6h89.4c9.7 0.9 14.9 6.8 15.6 17.9 0 11.1-4.9 17-14.5 17.9H721c-3 0-4.5 0.4-4.5 1.3-10.4 52.8-29.4 96.5-57 131.4 22.3 17.9 50.6 33.6 84.9 47.2 9.7 3.4 13 11 10.1 23-3.7 9.3-11.2 12.3-22.3 8.9-35.2-12.3-66.9-28.6-95.1-48.8v109.6c0 6.4 5.2 11.5 11.5 11.5h113.3c35.4 0 64.3-28.9 64.3-64.3v-285c-0.1-35.4-29.1-64.3-64.5-64.3z" fill="#0052D9" p-id="2428"></path><path d="M674.9 353.5h-88.7c-3.7 0-6.4 3.5-5.5 7 4.1 15.3 9.4 30.1 15.9 44.3 0.3 0.7 0.8 1.3 1.4 1.9 14.3 12.5 25.5 28.6 32.1 46.8 6.5 0.8 3.7 0.5 10.2 1.3 19.5-29.9 32.8-61.4 40-94.4 0.8-3.6-1.9-6.9-5.4-6.9z" fill="#0052D9" p-id="2429"></path></svg>
