<?xml version="1.0" encoding="utf-8"?>
<!-- Generator: Adobe Illustrator 16.0.0, SVG Export Plug-In . SVG Version: 6.00 Build 0)  -->
<!DOCTYPE svg PUBLIC "-//W3C//DTD SVG 1.1//EN" "http://www.w3.org/Graphics/SVG/1.1/DTD/svg11.dtd">
<svg version="1.1" id="Layer_1" xmlns="http://www.w3.org/2000/svg" xmlns:xlink="http://www.w3.org/1999/xlink" x="0px" y="0px"
	 width="462.059px" height="462.059px" viewBox="0 0 462.059 462.059" enable-background="new 0 0 462.059 462.059"
	 xml:space="preserve">
<rect fill="#262626" width="462.059" height="462.059"/>
<g>
	<g>
		<path fill="#FFFFFF" d="M60.06,322.3c-6.972,0-13.029-0.726-18.002-2.158c-5.24-1.497-9.66-3.771-13.126-6.755
			c-3.56-3.058-6.205-6.877-7.855-11.349c-1.546-4.188-2.33-8.97-2.33-14.216v-37.397c0-11.697,3.803-20.547,11.302-26.302
			c7.14-5.497,17.533-8.172,31.766-8.172c6.308,0,12.082,0.552,17.161,1.641c5.344,1.144,9.995,2.964,13.823,5.41
			c4.097,2.622,7.284,6.078,9.472,10.272c2.154,4.126,3.247,8.999,3.247,14.482v7.652c0,3.017-2.446,5.462-5.463,5.462H72.017
			c-3.017,0-5.462-2.445-5.462-5.462v-5.836c0-2.487-0.429-4.375-1.209-5.314c-0.51-0.612-1.068-0.997-2.251-0.997l-0.613-0.006
			c-2.73,0-3.742,0.457-3.957,0.575c-0.661,0.868-0.8,2.339-0.8,3.44l-0.159,45.056c0,0.685,0.09,1.608,0.52,2.013
			c0.014,0.014,0.883,0.646,4.057,0.646c1.816,0,2.546-0.36,2.726-0.47c0.585-0.366,1.012-0.782,1.303-1.289
			c0.361-0.627,0.575-1.306,0.653-2.072c0.139-1.347,0.209-2.626,0.209-3.814v-8.261c0-3.017,2.445-5.462,5.462-5.462h28.042
			c3.017,0,5.462,2.445,5.462,5.462v11.171c0,4.663-0.951,9.059-2.827,13.062c-1.936,4.113-4.933,7.657-8.912,10.541
			c-3.794,2.752-8.663,4.885-14.468,6.338C74.238,321.59,67.596,322.3,60.06,322.3z"/>
		<path fill="#FFFFFF" d="M61.814,221.414c5.947,0,11.281,0.504,16.015,1.52c4.723,1.01,8.736,2.567,12.027,4.671
			c3.294,2.108,5.818,4.836,7.571,8.197c1.754,3.36,2.626,7.343,2.626,11.955v7.652H72.017V255.4v-5.827
			c0-3.88-0.821-6.817-2.467-8.802c-1.651-1.982-3.802-2.972-6.456-2.972c-0.207-0.004-0.412-0.007-0.613-0.007
			c-4.015,0-6.705,0.813-8.068,2.436c-1.435,1.698-2.151,4.047-2.151,7.043l-0.159,45.037c0,2.592,0.743,4.6,2.235,6.006
			c1.48,1.418,4.085,2.134,7.804,2.134c2.334,0,4.196-0.428,5.577-1.272c1.381-0.861,2.44-1.927,3.186-3.222
			c0.743-1.291,1.197-2.707,1.354-4.248c0.159-1.535,0.238-2.993,0.238-4.365v-8.261h28.042v11.171
			c0,3.883-0.773,7.462-2.311,10.744c-1.541,3.272-3.935,6.089-7.171,8.435c-3.24,2.351-7.439,4.174-12.589,5.463
			c-5.153,1.297-11.287,1.944-18.408,1.944c-6.48,0-11.976-0.645-16.491-1.944c-4.515-1.289-8.206-3.177-11.073-5.646
			c-2.87-2.465-4.966-5.499-6.296-9.101c-1.33-3.603-1.991-7.715-1.991-12.324v-37.397c0-9.949,3.056-17.28,9.165-21.968
			C39.475,223.759,48.959,221.414,61.814,221.414 M61.814,210.488c-15.484,0-26.967,3.047-35.105,9.312
			c-6.117,4.693-13.425,13.827-13.425,30.624v37.397c0,5.893,0.897,11.312,2.667,16.107c1.977,5.354,5.148,9.931,9.427,13.605
			c4.058,3.495,9.173,6.144,15.19,7.861c5.519,1.59,11.902,2.365,19.491,2.365c7.985,0,15.076-0.765,21.074-2.275
			c6.473-1.62,11.975-4.048,16.337-7.213c4.731-3.428,8.312-7.678,10.641-12.626c2.226-4.752,3.351-9.926,3.351-15.396V279.08
			c0-6.034-4.891-10.925-10.925-10.925H72.496c-4,0-7.498,2.149-9.401,5.356l0.042-11.745c1.982,2.765,5.222,4.567,8.881,4.567
			h28.037c6.034,0,10.925-4.891,10.925-10.925v-7.652c0-6.372-1.301-12.096-3.867-17.011c-2.635-5.049-6.459-9.202-11.367-12.344
			c-4.386-2.803-9.643-4.871-15.63-6.152C74.665,211.082,68.506,210.488,61.814,210.488L61.814,210.488z"/>
	</g>
	<g>
		<path fill="#FFFFFF" d="M244.522,320.109c-2.556,0-4.77-1.772-5.33-4.266l-3.022-13.46h-13.091l-2.503,13.275
			c-0.487,2.582-2.741,4.45-5.368,4.45h-28.205c-1.715,0-3.331-0.806-4.363-2.175c-1.032-1.37-1.361-3.146-0.888-4.795
			l26.129-91.052c0.672-2.342,2.814-3.956,5.25-3.956h33.779c2.44,0,4.584,1.618,5.253,3.965l25.969,91.052
			c0.47,1.648,0.14,3.421-0.892,4.789c-1.033,1.367-2.647,2.172-4.361,2.172H244.522z M231.222,275.433l-1.463-7.646l-1.522,7.646
			H231.222z"/>
		<path fill="#FFFFFF" d="M246.911,223.595l25.969,91.053h-28.357l-3.98-17.726H218.55l-3.342,17.726h-28.205l26.128-91.053H246.911
			 M221.579,280.896h16.25l-7.807-40.788h-0.321L221.579,280.896 M246.911,212.67h-33.779c-4.873,0-9.157,3.228-10.501,7.911
			l-26.129,91.053c-0.946,3.297-0.289,6.848,1.776,9.587c2.064,2.74,5.295,4.352,8.726,4.352h28.205
			c5.253,0,9.762-3.739,10.736-8.901l1.664-8.824h4.191l2.064,9.193c1.12,4.988,5.548,8.532,10.66,8.532h28.357
			c3.427,0,6.656-1.608,8.721-4.344c2.064-2.736,2.726-6.282,1.785-9.578l-25.969-91.052
			C256.078,215.905,251.79,212.67,246.911,212.67L246.911,212.67z"/>
	</g>
	<g>
		<path fill="#FFFFFF" d="M335.087,314.936c-2.186,0-4.162-1.304-5.022-3.313l-10.19-23.814l1.075,21.391
			c0.075,1.495-0.466,2.954-1.498,4.039c-1.031,1.084-2.461,1.698-3.958,1.698H288.89c-3.017,0-5.462-2.446-5.462-5.463v-54.777
			c-17.087-22.69-35.743-48.601-53.795-73.672c-17.828-24.76-36.192-50.266-53.217-72.913c-0.065,0.328-0.117,0.647-0.156,0.96
			c-1.08,8.609-2.073,19.274-3.034,29.588c-0.601,6.444-1.167,12.53-1.737,17.93c-0.096,0.917-0.247,1.897-0.403,2.894
			c-0.211,1.351-0.559,3.578-0.397,4.406c3.688,5.929,6.108,14.224-0.723,22.319c2.258,2.802,3.902,5.28,5.02,7.568l7.77,0.505
			c5.232,0.34,9.986,2.834,13.387,7.024c3.3,4.066,4.924,9.263,4.572,14.632l-4.29,65.912c-0.697,10.759-9.226,19.189-19.417,19.189
			c-0.397,0-0.799-0.014-1.2-0.039l-58.811-3.822c-10.633-0.7-18.69-10.415-17.966-21.656l4.287-65.919
			c0.702-10.758,9.228-19.184,19.411-19.184c0.402,0,0.809,0.013,1.215,0.04l31.299,2.035c-4.519-7.519-5.286-19.51-1.811-25.358
			c1.647-2.774,3.901-6.892,4.439-10.63c1.235-8.616,2.285-18.831,3.3-28.709c1.042-10.146,2.121-20.636,3.418-29.604
			c0.614-4.279,3.155-12.146,8.776-14.454c1.094-0.449,2.311-0.677,3.616-0.677c4.522,0,9.809,2.817,12.808,5.435
			c20.848,18.184,44.526,41.678,67.425,64.399c21.833,21.663,44.409,44.064,64.123,61.428c0.612,0.538,1.095,1.208,1.415,1.958
			l10.086,23.679l-1.134-21.247c-0.08-1.497,0.46-2.961,1.491-4.049c1.032-1.088,2.465-1.704,3.964-1.704h26.61
			c3.017,0,5.463,2.445,5.463,5.462v91.053c0,3.017-2.446,5.463-5.463,5.463H335.087z"/>
		<path fill="#FFFFFF" d="M176.981,88.521c2.836,0,6.89,2.058,9.215,4.087c40.635,35.443,91.064,90.167,131.53,125.812
			l21.668,50.869h0.479l-2.714-50.869h26.61v91.053h-28.683l-21.821-50.995l-0.322,0.243l2.551,50.752H288.89v-56.605
			c-36.285-48.077-78.554-109.312-114.663-156.703c-1.606,5.649-2.969,8.88-3.388,12.228c-1.763,14.051-3.3,33.547-4.783,47.623
			c-0.373,3.565-1.688,8.09-0.096,10.614c4.994,7.914,3.177,13.943-3.496,19.226c4.988,5.503,7.832,9.736,8.671,13.144l11.265,0.731
			c7.641,0.497,13.405,7.597,12.863,15.849l-4.29,65.915c-0.515,7.954-6.685,14.081-13.966,14.081c-0.28,0-0.562-0.009-0.846-0.027
			l-58.811-3.822c-7.646-0.503-13.401-7.603-12.869-15.854l4.287-65.915c0.519-7.951,6.685-14.076,13.959-14.076
			c0.284,0,0.569,0.01,0.856,0.028l43.292,2.813c-0.35-2.148-1.992-4.222-4.48-6.121c-5.526-4.231-7.21-17.726-4.268-22.677
			c2.311-3.888,4.518-8.255,5.15-12.641c2.521-17.585,4.175-40.728,6.717-58.311c0.538-3.749,2.653-9.037,5.445-10.183
			C175.888,88.604,176.41,88.521,176.981,88.521 M288.89,218.586v-0.166h13.726c-9.807-11.51-21.602-23.035-29.736-30.282
			c-0.954-0.856-2.437-2.538-3.861-2.537c-0.595,0-1.18,0.293-1.712,1.064c-1.372,2.004-1.282,3.599-0.184,5.187
			c4.179,6.056,9.524,11.292,13.91,17.22C282.779,211.441,286.245,215.068,288.89,218.586 M176.981,77.596
			C176.981,77.596,176.981,77.596,176.981,77.596c-2.021,0-3.936,0.365-5.691,1.086c-9.729,3.994-11.895,17.24-12.11,18.737
			c-1.311,9.068-2.396,19.616-3.443,29.817c-1.01,9.825-2.054,19.984-3.274,28.496c-0.444,3.086-2.916,7.244-3.727,8.61
			c-3.223,5.424-3.816,14.174-1.808,22.136l-22.636-1.472c-0.518-0.034-1.043-0.051-1.564-0.051
			c-13.052,0-23.973,10.668-24.861,24.29l-4.287,65.918c-0.918,14.249,9.423,26.566,23.054,27.464l58.819,3.823
			c0.52,0.033,1.04,0.05,1.555,0.05c13.062,0,23.986-10.674,24.868-24.301l4.29-65.911c0.443-6.741-1.611-13.287-5.782-18.427
			c-4.371-5.384-10.505-8.592-17.274-9.032l-4.798-0.312c-0.485-0.792-1.017-1.6-1.598-2.429c4.208-7.175,4.088-15.377-0.534-23.643
			c0.076-0.655,0.207-1.491,0.305-2.119c0.159-1.014,0.323-2.062,0.439-3.175c0.572-5.423,1.141-11.526,1.743-17.987
			c0.523-5.615,1.056-11.334,1.606-16.758c14.606,19.694,29.957,41.015,44.929,61.809c17.684,24.561,35.944,49.922,52.766,72.306
			v52.952c0,6.034,4.891,10.925,10.925,10.925h26.604c2.993,0,5.854-1.229,7.916-3.396c0.767-0.807,1.398-1.715,1.88-2.693
			c1.832,3.713,5.622,6.089,9.796,6.089h28.683c6.034,0,10.925-4.891,10.925-10.925V218.42c0-6.033-4.891-10.925-10.925-10.925
			h-26.61c-2.999,0-5.865,1.232-7.929,3.409c-0.719,0.758-1.318,1.608-1.788,2.521c-0.624-1.213-1.468-2.3-2.495-3.204
			c-19.592-17.256-42.11-39.6-63.886-61.206c-22.961-22.782-46.703-46.339-67.685-64.64
			C189.796,81.25,183.351,77.596,176.981,77.596L176.981,77.596z"/>
	</g>
	<g>
		<path fill="#FFFFFF" d="M377.73,320.109c-3.017,0-5.463-2.446-5.463-5.462v-91.053c0-3.017,2.446-5.463,5.463-5.463h64.211
			c3.018,0,5.463,2.446,5.463,5.463V241.8c0,3.018-2.445,5.463-5.463,5.463h-30.705v5.833h29.591c3.018,0,5.463,2.445,5.463,5.462
			v18.217c0,3.017-2.445,5.462-5.463,5.462h-29.591v8.736h32.618c3.017,0,5.463,2.445,5.463,5.463v18.212
			c0,3.016-2.446,5.462-5.463,5.462H377.73z"/>
		<path fill="#FFFFFF" d="M441.941,223.595V241.8h-36.167v16.758h35.053v18.217h-35.053v19.661h38.08v18.212H377.73v-91.053H441.941
			 M441.941,212.67H377.73c-6.034,0-10.925,4.891-10.925,10.925v91.053c0,6.033,4.891,10.925,10.925,10.925h66.124
			c6.034,0,10.925-4.892,10.925-10.925v-18.212c0-5.009-3.37-9.23-7.968-10.52c2.976-1.952,4.941-5.317,4.941-9.142v-18.217
			c0-3.114-1.304-5.924-3.395-7.914c2.731-1.986,4.508-5.208,4.508-8.844v-18.205C452.866,217.561,447.976,212.67,441.941,212.67
			L441.941,212.67z"/>
	</g>
</g>
<g>
	<path fill="#72B9A6" d="M190.973,281.493c-0.535,8.261-7.169,14.551-14.812,14.054l-58.811-3.822
		c-7.646-0.503-13.401-7.603-12.869-15.854l4.287-65.915c0.539-8.261,7.175-14.551,14.815-14.048l58.816,3.823
		c7.641,0.496,13.405,7.596,12.863,15.848L190.973,281.493z"/>
	<path fill="#DE792E" d="M317.727,218.42c-40.466-35.644-90.896-90.369-131.53-125.812c-2.794-2.439-8.083-4.918-10.757-3.82
		c-2.792,1.146-4.907,6.434-5.445,10.183c-2.542,17.583-4.196,40.725-6.717,58.311c-0.632,4.386-2.839,8.754-5.15,12.641
		c-2.942,4.951-1.258,18.445,4.268,22.678c4.45,3.396,6.203,7.349,2.672,11.295c-1.949,2.182-6.525,2.007-10.086,2.934
		c3.426,3.576,8.318,3.793,13.329-0.123c5.493-4.296,3.793-10.217-5.845-20.854c6.673-5.282,8.489-11.311,3.496-19.225
		c-1.591-2.524-0.276-7.048,0.096-10.613c1.483-14.075,3.021-33.571,4.783-47.623c0.418-3.348,1.781-6.579,3.388-12.228
		c37.611,49.362,81.91,113.751,119.163,162.641c1.342-9.756-0.556-25.819-1.022-33.36c-0.28-4.552-8.342-12.313-11.335-16.374
		c-4.386-5.927-9.731-11.164-13.91-17.22c-1.098-1.588-1.188-3.182,0.184-5.186c1.804-2.617,4.22,0.258,5.573,1.471
		c13.396,11.934,36.728,35.473,44.738,51.438c0.358,0.716-2.168-17.033-1.245-15.501"/>
	<path d="M72.017,255.4v-5.827c0-3.88-0.821-6.816-2.467-8.802c-1.651-1.982-3.802-2.972-6.456-2.972
		c-4.356-0.085-7.25,0.725-8.681,2.43c-1.435,1.697-2.151,4.046-2.151,7.042l-0.159,45.037c0,2.592,0.743,4.6,2.235,6.006
		c1.48,1.418,4.085,2.134,7.804,2.134c2.334,0,4.196-0.428,5.577-1.272c1.381-0.861,2.44-1.927,3.186-3.222
		c0.743-1.291,1.197-2.707,1.354-4.248c0.159-1.535,0.238-2.993,0.238-4.365v-8.261h28.042v11.171c0,3.883-0.773,7.462-2.311,10.744
		c-1.541,3.272-3.935,6.089-7.171,8.435c-3.24,2.351-7.439,4.174-12.589,5.463c-5.153,1.297-11.287,1.944-18.408,1.944
		c-6.48,0-11.976-0.645-16.491-1.944c-4.515-1.289-8.206-3.177-11.073-5.646c-2.87-2.465-4.966-5.499-6.296-9.101
		c-1.33-3.603-1.991-7.715-1.991-12.324v-37.397c0-9.948,3.056-17.279,9.165-21.969c6.101-4.696,15.586-7.042,28.44-7.042
		c5.947,0,11.281,0.505,16.015,1.519c4.723,1.011,8.736,2.568,12.027,4.672c3.294,2.108,5.818,4.837,7.571,8.197
		c1.754,3.36,2.626,7.343,2.626,11.955v7.652H72.017V255.4z"/>
	<path fill="#FFFFFF" d="M138.883,284.303l-24.225-1.67l5.415-78.64l35.364,2.437c10.002,0.692,17.345,2.864,22.023,6.519
		c4.681,3.658,6.756,9.407,6.215,17.229c-0.289,4.196-1.415,7.734-3.358,10.618c-1.955,2.889-5.507,5.03-10.676,6.429l-0.009,0.214
		c3.348,0.795,6.073,2.136,8.152,4.037c2.078,1.901,3.116,4.214,3.113,6.958c0.073,1.621,0.1,3.585,0.076,5.905
		c-0.018,2.313-0.039,4.665-0.066,7.057c-0.026,2.386-0.023,4.666,0.009,6.847c0.036,2.185,0.193,3.911,0.479,5.198
		c0.56,1.23,1.275,2.193,2.147,2.885l-0.079,1.054l-26.415-1.821c-0.316-0.794-0.568-1.563-0.743-2.312
		c-0.181-0.752-0.286-1.514-0.328-2.292c0.054-3.505,0.234-6.813,0.547-9.919c0.304-3.095,0.355-5.89,0.156-8.362
		c-0.201-2.47-0.821-4.477-1.862-6.028c-1.05-1.549-2.99-2.491-5.824-2.821l-7.981-0.554L138.883,284.303z M141.991,239.107
		l8.261,0.575c1.742,0.114,3.204-0.061,4.392-0.542c1.185-0.484,2.133-1.158,2.833-2.021c0.708-0.861,1.219-1.881,1.529-3.054
		c0.312-1.171,0.508-2.353,0.589-3.544c0.157-2.305-0.039-4.143-0.589-5.518c-0.551-1.365-1.492-2.421-2.825-3.146
		c-1.33-0.719-3.074-1.212-5.223-1.461c-2.147-0.257-4.696-0.455-7.634-0.581L141.991,239.107z"/>
	<path d="M187.003,314.647l26.128-91.053h33.779l25.969,91.053h-28.357l-3.98-17.726H218.55l-3.342,17.726H187.003z
		 M230.022,240.106h-0.321l-8.122,40.788h16.25L230.022,240.106z"/>
	<path d="M313.266,258.478l-0.322,0.243l2.551,50.752H288.89V218.42h28.836l21.668,50.869h0.479l-2.714-50.869h26.611v91.053
		h-28.684L313.266,258.478z"/>
	<path d="M377.731,314.647v-91.053h64.21V241.8h-36.168v16.759h35.054v18.215h-35.054v19.662h38.081v18.212H377.731L377.731,314.647
		z"/>
	<path fill="#FFFFFF" d="M302.003,225.433c2.5,0,4.524,2.021,4.524,4.524c0,2.493-2.025,4.521-4.524,4.521
		c-2.497,0-4.519-2.028-4.519-4.521C297.484,227.454,299.506,225.433,302.003,225.433z"/>
</g>
</svg>
